Coordinates
version=1
nRows=9
nColumns=36
inDegrees=yes

Units are S.I. units (second, meters, Newtons, ...)
If the header above contains a line with 'inDegrees', this indicates whether rotational values are in degrees (yes) or radians (no).

endheader
time	pelvis_tilt	pelvis_list	pelvis_rotation	pelvis_tx	pelvis_ty	pelvis_tz	hip_flexion_r	hip_adduction_r	hip_rotation_r	knee_angle_r	knee_angle_r_beta	ankle_angle_r	subtalar_angle_r	mtp_angle_r	hip_flexion_l	hip_adduction_l	hip_rotation_l	knee_angle_l	knee_angle_l_beta	ankle_angle_l	subtalar_angle_l	mtp_angle_l	lumbar_extension	lumbar_bending	lumbar_rotation	arm_flex_r	arm_add_r	arm_rot_r	elbow_flex_r	pro_sup_r	arm_flex_l	arm_add_l	arm_rot_l	elbow_flex_l	pro_sup_l
      4.40416670	     -4.86620556	     -1.04388952	     -8.90292482	      0.47214111	      0.92638134	     -0.20172239	      6.28100609	    -10.48199021	      6.13988670	     13.57658171	      0.23695605	      5.32913595	     -7.60004029	     -7.49999987	     15.25797015	      1.10511589	     13.17707326	     20.37320858	      0.35557957	      3.89352435	    -21.97327059	     -7.49999987	     -8.70624039	      3.17837573	     -1.94042705	      6.94337693	     -1.69767852	     -5.78939415	     27.04455667	     74.62968511	      5.72238134	    -13.03654834	     29.84789882	     73.69549232	    100.76875418
      4.40833330	     -4.70091576	     -0.96199006	     -8.97790879	      0.46797955	      0.92559617	     -0.20555244	      6.31049209	    -10.68814099	      5.81982438	     13.68747368	      0.23889148	      5.39268308	     -7.47042955	     -7.49999987	     14.98472213	      1.26564207	     13.42218519	     19.92083132	      0.34768410	      3.36293320	    -22.64741857	     -7.49999987	     -9.28871204	      3.02836536	     -2.06632823	      6.73807998	     -1.63429114	     -6.38812459	     28.18215752	     75.01388444	      6.02915282	    -13.00751596	     29.53671541	     73.85356766	    100.99644695
      4.41250000	     -4.63918302	     -0.90491875	     -9.02986274	      0.46765869	      0.92643128	     -0.20577747	      6.35547930	    -10.87414244	      5.52348969	     13.67403103	      0.23865686	      5.08920373	     -7.46726253	     -7.49999987	     14.80334805	      1.35453537	     13.61005162	     19.48729266	      0.34011742	      3.08582903	    -22.88494603	     -7.49999987	     -9.41443699	      2.99209803	     -2.52459647	      6.85673817	     -1.48991732	     -6.58394559	     28.26645012	     74.98869682	      6.40379392	    -13.05414621	     29.68888952	     73.71566877	    100.87373282
      4.41666670	     -4.71237513	     -0.82747566	     -9.11178755	      0.46372389	      0.92847616	     -0.20978401	      6.71669732	    -11.06661127	      5.32585458	     13.73216864	      0.23967156	      4.97238438	     -7.45102114	     -7.49999987	     14.98860721	      1.51833821	     13.62284805	     19.29681223	      0.33679291	      2.99076976	    -22.86713558	     -7.49999987	     -9.71682828	      2.96504314	     -2.77882262	      7.08433065	     -1.51764128	     -6.65069502	     28.42379542	     75.02762296	      6.81893507	    -13.13787299	     29.64795816	     73.71168841	    100.89463461
      4.42083330	     -4.67009090	     -0.83831561	     -9.29845089	      0.46739502	      0.92599779	     -0.20540671	      6.78467216	    -11.11724553	      5.09548571	     13.75193122	      0.24001648	      4.91437866	     -7.48404610	     -7.49999987	     14.91564905	      1.49409558	     13.45560123	     19.30070191	      0.33686080	      2.94842091	    -22.91810470	     -7.49999987	     -9.75767977	      2.92364695	     -2.96602287	      7.01754767	     -1.49625053	     -6.67652710	     28.44154978	     75.03893501	      7.04630439	    -13.34476813	     29.57543754	     73.68614724	    100.89895756
      4.42500000	     -4.59209277	     -0.72131627	     -9.47005157	      0.46315209	      0.92523775	     -0.20912909	      7.15274865	    -11.39019402	      4.51548531	     14.12088969	      0.24645602	      4.66195535	     -7.54441036	     -7.49999987	     14.91583929	      1.63186457	     13.14399687	     19.15858555	      0.33438040	      2.61134929	    -23.02428411	     -7.49999987	    -10.19219543	      2.79389845	     -3.44983965	      7.29038499	     -1.35247318	     -6.82616946	     28.66457826	     75.10951104	      7.56339325	    -13.85499973	     29.64960732	     73.58636594	    100.95070079
      4.42916670	     -4.28266835	     -0.64294513	     -9.80422742	      0.46271826	      0.92398319	     -0.20952720	      7.19225209	    -11.60073775	      3.95140603	     14.25312739	      0.24876400	      4.77157143	     -7.37954863	     -7.49999987	     14.28161374	      1.72708524	     13.08523444	     18.48688050	      0.32265693	      2.16318320	    -23.91206185	     -7.49999987	    -10.73685463	      2.65357707	     -3.45537294	      7.35691608	     -1.13467879	     -8.58362284	     29.15115958	     76.29004807	      8.37672361	    -14.23413054	     30.35402127	     73.59030356	    101.88628428
      4.43333330	     -4.20912633	     -0.61259040	    -10.17681991	      0.46247106	      0.92052865	     -0.20867471	      7.45141978	    -11.61483106	      3.72264131	     14.42522934	      0.25176775	      4.57736531	     -7.99658433	     -7.49999987	     14.00432877	      1.68455299	     12.73034610	     18.05217241	      0.31506985	      1.91601555	    -24.54760236	     -7.49999987	    -10.88730461	      2.57177746	     -3.46275843	      7.41394559	     -1.08426995	     -8.85034270	     29.31449882	     75.07963424	      8.92293600	    -14.48760874	     31.02421558	     73.40775870	     98.98912962
      4.43750000	     -4.31776694	     -0.56413831	    -10.49579169	      0.46204203	      0.91872417	     -0.20863994	      7.91569929	    -11.63185477	      3.50939354	     14.67183552	      0.25607184	      4.62244832	     -8.40294841	     -7.49999987	     14.06077491	      1.69133810	     12.54884090	     17.91457475	      0.31266831	      1.85579252	    -25.12185678	     -7.49999987	    -10.73823613	      2.58329221	     -3.71152723	      7.52332780	     -1.02218111	     -9.69933348	     29.25305260	     78.36910649	      8.66331032	    -14.52978588	     30.29593537	     73.11037240	    101.78827833
